<svg version="1.1" id="Layer_1" xmlns="http://www.w3.org/2000/svg" xmlns:xlink="http://www.w3.org/1999/xlink" x="0px" y="0px"
	 width="100%" height="100%" viewBox="0 0 400 160" enable-background="new 0 0 400 160" xml:space="preserve">
<path fill="#000000" opacity="0.000000" stroke="none"
	d="
M281.000000,161.000000
	C187.333359,161.000000 94.166710,161.000000 1.000050,161.000000
	C1.000033,107.666702 1.000033,54.333405 1.000017,1.000079
	C134.333267,1.000052 267.666534,1.000052 400.999817,1.000026
	C400.999878,54.333252 400.999878,107.666504 400.999939,160.999878
	C361.166656,161.000000 321.333344,161.000000 281.000000,161.000000
M27.980713,84.004158
	C27.980713,84.004158 27.906767,83.935493 27.999077,84.653923
	C33.234051,91.242592 38.469025,97.831261 43.703999,104.419930
	C44.079342,104.128990 44.454685,103.838043 44.830032,103.547104
	C44.964664,101.438667 45.099297,99.330231 45.248215,96.998123
	C51.744102,99.088959 57.851082,101.376541 64.141914,102.909798
	C66.431358,103.467789 69.615776,102.932533 71.586777,101.654472
	C75.138733,99.351257 78.114693,96.145546 81.259308,93.238976
	C81.986137,92.567154 82.912277,91.585663 82.919548,90.739563
	C83.026352,78.301483 82.993050,65.862213 82.993050,52.979496
	C80.735481,53.134449 78.807259,52.825294 77.253250,53.448795
	C69.972069,56.370148 64.082703,54.354710 58.587570,49.212135
	C55.603687,46.419693 52.037453,44.249531 47.604942,40.961136
	C49.348808,47.323914 46.294636,48.995399 42.384430,50.303810
	C38.227539,51.694763 34.160019,53.371342 30.110752,55.060497
	C25.491096,56.987591 21.763811,60.274784 21.165310,65.252632
	C20.477646,70.972099 21.005726,76.837746 21.005726,82.864922
	C23.573885,83.307243 25.811642,83.692657 27.980713,84.004158
M97.000000,93.500000
	C97.000000,102.274185 97.000000,111.048378 97.000000,120.266640
	C69.207512,116.097015 42.129143,112.034523 13.743112,107.775841
	C15.464248,109.039276 15.929852,109.585442 16.512699,109.779526
	C42.333546,118.377602 68.147980,126.996147 94.028069,135.412704
	C95.991486,136.051239 98.633270,135.755966 100.610893,134.991882
	C107.763535,132.228333 114.659554,128.773605 121.881424,126.229881
	C124.663521,125.249947 125.016823,123.927460 125.014709,121.600487
	C124.990211,94.601616 124.934311,67.602348 125.087692,40.604328
	C125.105377,37.490303 123.829285,36.027332 121.307892,35.075344
	C115.821709,33.003956 110.299225,31.027103 104.834549,28.901144
	C102.389305,27.949854 100.047493,26.732700 97.000000,25.333820
	C97.000000,48.527042 97.000000,70.513519 97.000000,93.500000
M194.810349,91.641548
	C191.453918,91.301498 188.097488,90.961441 184.564789,90.603531
	C188.216568,85.212479 191.760986,79.979927 195.590469,74.326569
	C189.362869,74.326569 184.274048,74.326569 178.755814,74.326569
	C179.599976,81.098419 185.743332,75.836296 188.057129,79.227158
	C184.798447,83.517967 181.465775,87.906212 177.817383,92.710175
	C174.134094,83.276123 170.829636,74.812363 167.525879,66.348396
	C164.573380,65.178421 163.259979,66.458290 162.256302,69.271263
	C159.368088,77.365944 156.198090,85.360077 153.028580,93.683136
	C154.760971,93.683136 156.294266,93.683136 157.827560,93.683136
	C157.534821,93.301720 157.242065,92.920296 156.949310,92.538879
	C158.782761,90.694382 160.402878,87.583572 162.487915,87.232285
	C170.096329,85.950401 170.478546,86.491013 173.958313,93.997780
	C179.868378,93.997780 185.851929,94.067123 191.830841,93.932114
	C192.873718,93.908569 193.897171,93.024300 194.810349,91.641548
M338.920532,66.009300
	C330.478973,68.555557 326.258392,75.604958 328.096924,84.087387
	C329.889862,92.359489 338.360291,97.251045 345.517120,94.147316
	C353.284760,90.778694 355.845032,85.064644 353.963379,75.296844
	C352.769348,69.098442 348.046387,66.004623 338.920532,66.009300
M264.000183,84.456657
	C264.000183,87.547943 264.000183,90.639236 264.000183,93.883522
	C271.956512,93.833145 279.987213,96.005844 284.832306,88.198799
	C288.286438,82.633064 288.275177,76.224815 284.312988,71.092758
	C279.217072,64.492233 271.493652,66.109131 264.000183,66.105042
	C264.000183,72.231522 264.000183,77.851166 264.000183,84.456657
M359.508453,102.958168
	C360.337494,102.089447 361.721039,101.312294 361.882690,100.333374
	C362.243805,98.146637 361.995575,95.859268 361.995575,93.429886
	C371.488098,97.451996 375.497833,92.559593 376.841736,87.177597
	C378.451233,80.732155 375.483856,74.266121 370.770081,74.079933
	C366.616302,73.915871 362.437561,74.382812 358.605316,74.555946
	C358.605316,83.983040 358.605316,93.390152 359.508453,102.958168
M249.917099,82.864868
	C248.266815,80.067909 247.253876,76.195442 244.805817,74.744698
	C241.706406,72.907944 237.304489,73.000946 234.391800,76.318855
	C231.175705,79.982353 230.946274,87.559494 233.968048,91.550682
	C236.596832,95.022797 240.123581,95.662453 244.377258,94.349922
	C247.232727,93.468834 248.775681,92.506104 247.572388,89.330597
	C240.294464,92.504868 237.011353,91.336426 236.253494,85.000191
	C238.267197,85.000191 240.251312,85.159576 242.198914,84.960945
	C244.793655,84.696327 247.359970,84.153183 249.917099,82.864868
M306.996948,81.790016
	C305.803253,75.403168 302.986603,73.235451 296.886993,74.009323
	C292.493561,74.566719 288.666473,79.913071 289.067963,84.932327
	C289.590210,91.461739 293.870483,95.706100 299.759308,94.881371
	C302.541260,94.491760 306.906464,94.772247 305.764893,89.448158
	C297.451355,92.657860 294.745270,91.673607 293.773010,84.998070
	C297.112000,84.998070 300.441345,85.195984 303.723907,84.890709
	C304.872681,84.783867 305.906311,83.438599 306.996948,81.790016
M197.999924,78.712822
	C198.001938,82.032822 197.857056,85.361099 198.043488,88.670708
	C198.271896,92.725410 200.561584,95.192886 204.669388,94.903351
	C208.029633,94.666527 211.333649,93.631927 214.996246,92.882751
	C214.996246,87.851875 215.135620,82.376099 214.882156,76.918549
	C214.829590,75.786873 213.318817,74.722908 212.480103,73.627731
	C211.986710,73.909492 211.493332,74.191246 210.999939,74.473007
	C210.999939,76.432159 211.151825,78.406052 210.963394,80.346909
	C210.698044,83.080399 210.656662,86.001152 209.579361,88.423767
	C208.999527,89.727707 206.463165,90.745132 204.801346,90.757240
	C203.861664,90.764084 202.323090,88.581024 202.064667,87.195839
	C201.264313,82.905899 200.948212,78.525604 200.444138,74.180389
	C200.011505,74.064522 199.578873,73.948654 199.146240,73.832787
	C198.764297,75.147713 198.382355,76.462639 197.999924,78.712822
M389.313354,83.070023
	C388.572693,82.733070 387.720184,82.531013 387.115845,82.029716
	C386.024139,81.124123 385.080719,80.039749 384.075378,79.030029
	C385.562592,78.362778 386.999420,77.382141 388.553741,77.132217
	C389.697906,76.948235 390.995728,77.719650 392.632629,78.179939
	C392.632629,76.659744 392.632629,75.490929 392.632629,74.001488
	C390.295288,74.001488 387.964508,73.461922 386.072571,74.142410
	C383.865723,74.936180 380.653931,76.589767 380.407867,78.246063
	C380.107697,80.266922 381.878937,83.521858 383.740417,84.757523
	C388.619324,87.996193 388.832886,87.674469 388.266052,90.988571
	C386.824219,90.988571 385.334503,91.091324 383.867096,90.954659
	C382.778412,90.853256 381.718719,90.440948 380.646118,90.167130
	C380.306946,90.476532 379.967773,90.785934 379.628601,91.095329
	C380.703552,92.362488 381.540649,94.277946 382.897797,94.775902
	C387.061859,96.303665 391.776703,94.179352 393.182037,90.388321
	C394.377747,87.162727 393.037994,84.854187 389.313354,83.070023
M323.079285,74.471367
	C321.251312,79.086403 319.423309,83.701439 317.324585,88.999977
	C316.081482,85.513680 315.136475,82.601242 314.003876,79.763657
	C312.951019,77.125862 313.389252,72.624794 307.864563,74.593979
	C309.958862,80.059921 312.170410,85.290337 313.940643,90.666069
	C314.918304,93.634918 316.436920,94.660713 319.559143,93.684044
	C322.028320,87.418648 324.553162,81.011887 327.281464,74.088928
	C325.707153,74.088928 324.742401,74.088928 323.079285,74.471367
M225.127869,75.262421
	C223.574020,74.809746 222.020172,74.357079 220.008148,73.770927
	C220.008148,80.162399 219.869431,85.798119 220.137329,91.414444
	C220.184967,92.413147 221.921844,93.331268 222.878693,94.286598
	C224.001007,89.947380 224.069763,86.640648 223.980988,83.338150
	C223.898056,80.253410 224.914368,78.387177 228.294907,77.886574
	C229.433960,77.717911 230.365814,76.150146 231.392349,75.221825
	C231.042358,74.754593 230.692352,74.287369 230.342346,73.820137
	C228.814102,74.143631 227.285858,74.467117 225.127869,75.262421
z"/>
<path fill="#ffffff" opacity="1.000000" stroke="none"
	d="
M97.000000,93.000000
	C97.000000,70.513519 97.000000,48.527042 97.000000,25.333820
	C100.047493,26.732700 102.389305,27.949854 104.834549,28.901144
	C110.299225,31.027103 115.821709,33.003956 121.307892,35.075344
	C123.829285,36.027332 125.105377,37.490303 125.087692,40.604328
	C124.934311,67.602348 124.990211,94.601616 125.014709,121.600487
	C125.016823,123.927460 124.663521,125.249947 121.881424,126.229881
	C114.659554,128.773605 107.763535,132.228333 100.610893,134.991882
	C98.633270,135.755966 95.991486,136.051239 94.028069,135.412704
	C68.147980,126.996147 42.333546,118.377602 16.512699,109.779526
	C15.929852,109.585442 15.464248,109.039276 13.743112,107.775841
	C42.129143,112.034523 69.207512,116.097015 97.000000,120.266640
	C97.000000,111.048378 97.000000,102.274185 97.000000,93.000000
z"/>
<path fill="#ffffff" opacity="1.000000" stroke="none"
	d="
M28.049400,84.078079
	C25.811642,83.692657 23.573885,83.307243 21.005726,82.864922
	C21.005726,76.837746 20.477646,70.972099 21.165310,65.252632
	C21.763811,60.274784 25.491096,56.987591 30.110752,55.060497
	C34.160019,53.371342 38.227539,51.694763 42.384430,50.303810
	C46.294636,48.995399 49.348808,47.323914 47.604942,40.961136
	C52.037453,44.249531 55.603687,46.419693 58.587570,49.212135
	C64.082703,54.354710 69.972069,56.370148 77.253250,53.448795
	C78.807259,52.825294 80.735481,53.134449 82.993050,52.979496
	C82.993050,65.862213 83.026352,78.301483 82.919548,90.739563
	C82.912277,91.585663 81.986137,92.567154 81.259308,93.238976
	C78.114693,96.145546 75.138733,99.351257 71.586777,101.654472
	C69.615776,102.932533 66.431358,103.467789 64.141914,102.909798
	C57.851082,101.376541 51.744102,99.088959 45.248215,96.998123
	C45.099297,99.330231 44.964664,101.438667 44.830032,103.547104
	C44.454685,103.838043 44.079342,104.128990 43.703999,104.419930
	C38.469025,97.831261 33.234051,91.242592 28.382919,84.322800
	C41.322632,85.717072 53.878502,87.442482 66.752411,89.211586
	C66.752411,78.204811 66.752411,67.809151 66.752411,56.977337
	C65.073532,57.126434 63.635399,57.144634 62.239124,57.395649
	C51.985218,59.239029 41.764343,61.285725 31.475794,62.904331
	C28.564276,63.362373 27.934984,64.601700 27.977425,67.122963
	C28.072542,72.773476 28.033697,78.426231 28.049400,84.078079
z"/>
<path fill="#ffffff" opacity="1.000000" stroke="none"
	d="
M194.869965,92.089554
	C193.897171,93.024300 192.873718,93.908569 191.830841,93.932114
	C185.851929,94.067123 179.868378,93.997780 173.958313,93.997780
	C170.478546,86.491013 170.096329,85.950401 162.487915,87.232285
	C160.402878,87.583572 158.782761,90.694382 156.949310,92.538879
	C157.242065,92.920296 157.534821,93.301720 157.827560,93.683136
	C156.294266,93.683136 154.760971,93.683136 153.028580,93.683136
	C156.198090,85.360077 159.368088,77.365944 162.256302,69.271263
	C163.259979,66.458290 164.573380,65.178421 167.525528,66.348495
	C170.829636,74.812363 174.134094,83.276123 177.817383,92.710175
	C181.465775,87.906212 184.798447,83.517967 188.057129,79.227158
	C185.743332,75.836296 179.599976,81.098419 178.755814,74.326569
	C184.274048,74.326569 189.362869,74.326569 195.590469,74.326569
	C191.760986,79.979927 188.216568,85.212479 184.564789,90.603531
	C188.097488,90.961441 191.453918,91.301498 194.869965,92.089554
M166.017715,73.945351
	C165.919388,73.638000 165.837585,73.323624 165.711945,73.027878
	C165.677490,72.946762 165.511780,72.921417 165.406296,72.870483
	C164.161530,75.999054 162.916763,79.127625 161.502579,82.682014
	C164.408798,82.682014 166.615082,82.682014 169.580185,82.682014
	C168.295807,79.645332 167.235626,77.138748 166.017715,73.945351
z"/>
<path fill="#ffffff" opacity="1.000000" stroke="none"
	d="
M339.347107,66.005524
	C348.046387,66.004623 352.769348,69.098442 353.963379,75.296844
	C355.845032,85.064644 353.284760,90.778694 345.517120,94.147316
	C338.360291,97.251045 329.889862,92.359489 328.096924,84.087387
	C326.258392,75.604958 330.478973,68.555557 339.347107,66.005524
M348.036987,72.566139
	C344.861176,69.255135 340.839691,69.180244 337.091675,70.646416
	C333.464691,72.065224 331.227997,78.327713 332.035675,82.637558
	C332.965607,87.599808 336.416992,90.709389 340.934204,91.031776
	C345.996521,91.393066 348.885712,88.344170 349.638428,84.219933
	C350.279205,80.709061 349.029022,76.853065 348.036987,72.566139
z"/>
<path fill="#ffffff" opacity="1.000000" stroke="none"
	d="
M264.000183,83.963730
	C264.000183,77.851166 264.000183,72.231522 264.000183,66.105042
	C271.493652,66.109131 279.217072,64.492233 284.312988,71.092758
	C288.275177,76.224815 288.286438,82.633064 284.832306,88.198799
	C279.987213,96.005844 271.956512,93.833145 264.000183,93.883522
	C264.000183,90.639236 264.000183,87.547943 264.000183,83.963730
M268.003510,88.186172
	C268.439911,89.099800 269.090851,90.851524 269.280884,90.802864
	C272.811066,89.899040 277.145111,89.686073 279.516266,87.436798
	C281.619568,85.441582 282.748260,80.897926 282.165497,77.894875
	C280.764099,70.673615 277.270355,69.192551 268.000427,70.546127
	C268.000427,76.059334 268.000427,81.650871 268.003510,88.186172
z"/>
<path fill="#ffffff" opacity="1.000000" stroke="none"
	d="
M359.056885,102.877716
	C358.605316,93.390152 358.605316,83.983040 358.605316,74.555946
	C362.437561,74.382812 366.616302,73.915871 370.770081,74.079933
	C375.483856,74.266121 378.451233,80.732155 376.841736,87.177597
	C375.497833,92.559593 371.488098,97.451996 361.995575,93.429886
	C361.995575,95.859268 362.243805,98.146637 361.882690,100.333374
	C361.721039,101.312294 360.337494,102.089447 359.056885,102.877716
M371.947601,88.188721
	C372.023682,85.369888 372.879028,82.263000 371.971466,79.807770
	C370.922241,76.969269 368.005035,75.923698 365.010773,78.035568
	C361.753021,80.333267 360.973419,85.880150 363.602448,89.018387
	C366.199158,92.118057 368.949249,91.822998 371.947601,88.188721
z"/>
<path fill="#ffffff" opacity="1.000000" stroke="none"
	d="
M249.927795,83.297272
	C247.359970,84.153183 244.793655,84.696327 242.198914,84.960945
	C240.251312,85.159576 238.267197,85.000191 236.253494,85.000191
	C237.011353,91.336426 240.294464,92.504868 247.572388,89.330597
	C248.775681,92.506104 247.232727,93.468834 244.377258,94.349922
	C240.123581,95.662453 236.596832,95.022797 233.968048,91.550682
	C230.946274,87.559494 231.175705,79.982353 234.391800,76.318855
	C237.304489,73.000946 241.706406,72.907944 244.805817,74.744698
	C247.253876,76.195442 248.266815,80.067909 249.927795,83.297272
M244.904556,79.588684
	C240.859619,75.589790 238.399368,76.210091 236.321701,81.990364
	C238.888443,81.990364 241.367737,82.069885 243.832474,81.916061
	C244.269104,81.888809 244.645081,80.889534 244.904556,79.588684
z"/>
<path fill="#ffffff" opacity="1.000000" stroke="none"
	d="
M306.994720,82.224434
	C305.906311,83.438599 304.872681,84.783867 303.723907,84.890709
	C300.441345,85.195984 297.112000,84.998070 293.773010,84.998070
	C294.745270,91.673607 297.451355,92.657860 305.764893,89.448158
	C306.906464,94.772247 302.541260,94.491760 299.759308,94.881371
	C293.870483,95.706100 289.590210,91.461739 289.067963,84.932327
	C288.666473,79.913071 292.493561,74.566719 296.886993,74.009323
	C302.986603,73.235451 305.803253,75.403168 306.994720,82.224434
M302.714996,81.607506
	C301.488281,80.077332 300.210449,77.265320 299.046631,77.311752
	C297.214447,77.384865 295.459015,79.381180 293.671082,80.563278
	C293.964081,81.018341 294.257080,81.473404 294.550079,81.928467
	C297.009644,81.928467 299.469208,81.928467 302.714996,81.607506
z"/>
<path fill="#ffffff" opacity="1.000000" stroke="none"
	d="
M198.000183,78.245193
	C198.382355,76.462639 198.764297,75.147713 199.146240,73.832787
	C199.578873,73.948654 200.011505,74.064522 200.444138,74.180389
	C200.948212,78.525604 201.264313,82.905899 202.064667,87.195839
	C202.323090,88.581024 203.861664,90.764084 204.801346,90.757240
	C206.463165,90.745132 208.999527,89.727707 209.579361,88.423767
	C210.656662,86.001152 210.698044,83.080399 210.963394,80.346909
	C211.151825,78.406052 210.999939,76.432159 210.999939,74.473007
	C211.493332,74.191246 211.986710,73.909492 212.480103,73.627731
	C213.318817,74.722908 214.829590,75.786873 214.882156,76.918549
	C215.135620,82.376099 214.996246,87.851875 214.996246,92.882751
	C211.333649,93.631927 208.029633,94.666527 204.669388,94.903351
	C200.561584,95.192886 198.271896,92.725410 198.043488,88.670708
	C197.857056,85.361099 198.001938,82.032822 198.000183,78.245193
z"/>
<path fill="#ffffff" opacity="1.000000" stroke="none"
	d="
M389.643066,83.272049
	C393.037994,84.854187 394.377747,87.162727 393.182037,90.388321
	C391.776703,94.179352 387.061859,96.303665 382.897797,94.775902
	C381.540649,94.277946 380.703552,92.362488 379.628601,91.095329
	C379.967773,90.785934 380.306946,90.476532 380.646118,90.167130
	C381.718719,90.440948 382.778412,90.853256 383.867096,90.954659
	C385.334503,91.091324 386.824219,90.988571 388.266052,90.988571
	C388.832886,87.674469 388.619324,87.996193 383.740417,84.757523
	C381.878937,83.521858 380.107697,80.266922 380.407867,78.246063
	C380.653931,76.589767 383.865723,74.936180 386.072571,74.142410
	C387.964508,73.461922 390.295288,74.001488 392.632629,74.001488
	C392.632629,75.490929 392.632629,76.659744 392.632629,78.179939
	C390.995728,77.719650 389.697906,76.948235 388.553741,77.132217
	C386.999420,77.382141 385.562592,78.362778 384.075378,79.030029
	C385.080719,80.039749 386.024139,81.124123 387.115845,82.029716
	C387.720184,82.531013 388.572693,82.733070 389.643066,83.272049
z"/>
<path fill="#ffffff" opacity="1.000000" stroke="none"
	d="
M323.428467,74.280151
	C324.742401,74.088928 325.707153,74.088928 327.281464,74.088928
	C324.553162,81.011887 322.028320,87.418648 319.559143,93.684044
	C316.436920,94.660713 314.918304,93.634918 313.940643,90.666069
	C312.170410,85.290337 309.958862,80.059921 307.864563,74.593979
	C313.389252,72.624794 312.951019,77.125862 314.003876,79.763657
	C315.136475,82.601242 316.081482,85.513680 317.324585,88.999977
	C319.423309,83.701439 321.251312,79.086403 323.428467,74.280151
z"/>
<path fill="#ffffff" opacity="1.000000" stroke="none"
	d="
M225.442749,75.026520
	C227.285858,74.467117 228.814102,74.143631 230.342346,73.820137
	C230.692352,74.287369 231.042358,74.754593 231.392349,75.221825
	C230.365814,76.150146 229.433960,77.717911 228.294907,77.886574
	C224.914368,78.387177 223.898056,80.253410 223.980988,83.338150
	C224.069763,86.640648 224.001007,89.947380 222.878693,94.286598
	C221.921844,93.331268 220.184967,92.413147 220.137329,91.414444
	C219.869431,85.798119 220.008148,80.162399 220.008148,73.770927
	C222.020172,74.357079 223.574020,74.809746 225.442749,75.026520
z"/>
<path fill="#000000" opacity="0.000000" stroke="none"
	d="
M28.015057,84.041122
	C28.033697,78.426231 28.072542,72.773476 27.977425,67.122963
	C27.934984,64.601700 28.564276,63.362373 31.475794,62.904331
	C41.764343,61.285725 51.985218,59.239029 62.239124,57.395649
	C63.635399,57.144634 65.073532,57.126434 66.752411,56.977337
	C66.752411,67.809151 66.752411,78.204811 66.752411,89.211586
	C53.878502,87.442482 41.322632,85.717072 28.336765,83.963577
	C27.906767,83.935493 27.980713,84.004158 28.015057,84.041122
z"/>
<path fill="#000000" opacity="0.000000" stroke="none"
	d="
M166.096588,74.288757
	C167.235626,77.138748 168.295807,79.645332 169.580185,82.682014
	C166.615082,82.682014 164.408798,82.682014 161.502579,82.682014
	C162.916763,79.127625 164.161530,75.999054 165.406296,72.870483
	C165.511780,72.921417 165.677490,72.946762 165.711945,73.027878
	C165.837585,73.323624 165.919388,73.638000 166.096588,74.288757
z"/>
<path fill="#000000" opacity="0.000000" stroke="none"
	d="
M348.326233,72.857948
	C349.029022,76.853065 350.279205,80.709061 349.638428,84.219933
	C348.885712,88.344170 345.996521,91.393066 340.934204,91.031776
	C336.416992,90.709389 332.965607,87.599808 332.035675,82.637558
	C331.227997,78.327713 333.464691,72.065224 337.091675,70.646416
	C340.839691,69.180244 344.861176,69.255135 348.326233,72.857948
z"/>
<path fill="#000000" opacity="0.000000" stroke="none"
	d="
M268.001953,87.714294
	C268.000427,81.650871 268.000427,76.059334 268.000427,70.546127
	C277.270355,69.192551 280.764099,70.673615 282.165497,77.894875
	C282.748260,80.897926 281.619568,85.441582 279.516266,87.436798
	C277.145111,89.686073 272.811066,89.899040 269.280884,90.802864
	C269.090851,90.851524 268.439911,89.099800 268.001953,87.714294
z"/>
<path fill="#000000" opacity="0.000000" stroke="none"
	d="
M371.754089,88.544968
	C368.949249,91.822998 366.199158,92.118057 363.602448,89.018387
	C360.973419,85.880150 361.753021,80.333267 365.010773,78.035568
	C368.005035,75.923698 370.922241,76.969269 371.971466,79.807770
	C372.879028,82.263000 372.023682,85.369888 371.754089,88.544968
z"/>
<path fill="#000000" opacity="0.000000" stroke="none"
	d="
M244.976807,79.963898
	C244.645081,80.889534 244.269104,81.888809 243.832474,81.916061
	C241.367737,82.069885 238.888443,81.990364 236.321701,81.990364
	C238.399368,76.210091 240.859619,75.589790 244.976807,79.963898
z"/>
<path fill="#000000" opacity="0.000000" stroke="none"
	d="
M302.321899,81.767990
	C299.469208,81.928467 297.009644,81.928467 294.550079,81.928467
	C294.257080,81.473404 293.964081,81.018341 293.671082,80.563278
	C295.459015,79.381180 297.214447,77.384865 299.046631,77.311752
	C300.210449,77.265320 301.488281,80.077332 302.321899,81.767990
z"/>
</svg>
